<?xml version="1.0" encoding="iso-8859-1"?>
<!-- Uploaded to: SVG Repo, www.svgrepo.com, Generator: SVG Repo Mixer Tools -->
<svg height="800px" width="800px" version="1.1" id="Layer_1" xmlns="http://www.w3.org/2000/svg" xmlns:xlink="http://www.w3.org/1999/xlink" 
	 viewBox="0 0 512 512" xml:space="preserve">
<g transform="translate(1 1)">
	<path style="fill:#FCC309;" d="M347.16,459.8H162.84c-1.707,0-2.56-2.56-0.853-3.413l15.36-11.093
		c16.213-11.947,24.747-33.28,19.627-53.76h116.053l0,0c-5.12,20.48,3.413,41.813,19.627,53.76l15.36,11.093
		C349.72,457.24,348.867,459.8,347.16,459.8"/>
	<g>
		<path style="fill:#FFDD09;" d="M472.6,391.533H37.4c-16.213,0-29.867-13.653-29.867-29.867V45.933
			c0-16.213,13.653-29.867,29.867-29.867h435.2c16.213,0,29.867,13.653,29.867,29.867v315.733
			C502.467,377.88,488.813,391.533,472.6,391.533"/>
		<path style="fill:#FFDD09;" d="M502.467,314.733H7.533v-268.8c0-16.213,13.653-29.867,29.867-29.867h435.2
			c16.213,0,29.867,13.653,29.867,29.867V314.733z"/>
		<path style="fill:#FFDD09;" d="M348.867,493.933H161.133c-9.387,0-17.067-7.68-17.067-17.067s7.68-17.067,17.067-17.067h187.733
			c9.387,0,17.067,7.68,17.067,17.067S358.253,493.933,348.867,493.933"/>
	</g>
	<g>
		<path style="fill:#FD9808;" d="M348.013,456.387l-15.36-11.093c-16.213-11.947-24.747-33.28-19.627-53.76l0,0H295.96l0,0
			c-5.12,20.48,3.413,41.813,19.627,53.76l15.36,11.093c1.707,0.853,0.853,3.413-0.853,3.413h17.067
			C348.867,459.8,349.72,457.24,348.013,456.387"/>
		<path style="fill:#FD9808;" d="M348.867,459.8H331.8c9.387,0,17.067,7.68,17.067,17.067s-7.68,17.067-17.067,17.067h17.067
			c9.387,0,17.067-7.68,17.067-17.067S358.253,459.8,348.867,459.8"/>
	</g>
	<g>
		<path style="fill:#FFFFFF;" d="M161.987,456.387l15.36-11.093c16.213-11.947,24.747-33.28,19.627-53.76l0,0h17.067l0,0
			c5.12,20.48-3.413,41.813-19.627,53.76l-15.36,11.093c-1.707,0.853-0.853,3.413,0.853,3.413H162.84
			C161.133,459.8,160.28,457.24,161.987,456.387"/>
		<path style="fill:#FFFFFF;" d="M161.133,459.8H178.2c-9.387,0-17.067,7.68-17.067,17.067s7.68,17.067,17.067,17.067h-17.067
			c-9.387,0-17.067-7.68-17.067-17.067S151.747,459.8,161.133,459.8"/>
	</g>
	<path style="fill:#FD9808;" d="M472.6,16.067H447c16.213,0,29.867,13.653,29.867,29.867v315.733
		c0,16.213-13.653,29.867-29.867,29.867h25.6c16.213,0,29.867-13.653,29.867-29.867V45.933
		C502.467,29.72,488.813,16.067,472.6,16.067"/>
	<path style="fill:#FFFFFF;" d="M37.4,16.067H63c-16.213,0-29.867,13.653-29.867,29.867v315.733
		c0,16.213,13.653,29.867,29.867,29.867H37.4c-16.213,0-29.867-13.653-29.867-29.867V45.933C7.533,29.72,21.187,16.067,37.4,16.067"
		/>
	<path d="M347.16,468.333H162.84c-4.267,0-8.533-2.56-10.24-7.68c-1.707-4.267,0-9.387,4.267-11.947l15.36-11.093
		c13.653-9.387,20.48-27.307,16.213-44.373L185.88,383h140.8l-5.973,11.093c-3.413,17.067,2.56,34.133,16.213,43.52l15.36,11.093
		c3.413,2.56,5.12,7.68,4.267,11.947C355.693,465.773,351.427,468.333,347.16,468.333z M342.893,463.213L342.893,463.213
		L342.893,463.213z M167.107,463.213L167.107,463.213L167.107,463.213z M183.32,451.267h142.507
		c-15.36-11.947-24.747-31.573-23.04-51.2h-95.573C208.067,419.693,199.533,439.32,183.32,451.267z"/>
	<path d="M472.6,400.067H37.4C16.067,400.067-1,383-1,361.667V45.933c0-21.333,17.067-38.4,38.4-38.4h435.2
		c21.333,0,38.4,17.067,38.4,38.4v315.733C511,383,493.933,400.067,472.6,400.067z M37.4,24.6c-11.947,0-21.333,9.387-21.333,21.333
		v315.733C16.067,373.613,25.453,383,37.4,383h435.2c11.947,0,21.333-9.387,21.333-21.333V45.933
		c0-11.947-9.387-21.333-21.333-21.333H37.4z"/>
	<path d="M511,323.267H-1V45.933c0-21.333,17.067-38.4,38.4-38.4h435.2c21.333,0,38.4,17.067,38.4,38.4V323.267z M16.067,306.2
		h477.867V45.933c0-11.947-9.387-21.333-21.333-21.333H37.4c-11.947,0-21.333,9.387-21.333,21.333V306.2z"/>
	<path d="M348.867,502.467H161.133c-14.507,0-25.6-11.093-25.6-25.6c0-14.507,11.093-25.6,25.6-25.6h187.733
		c14.507,0,25.6,11.093,25.6,25.6C374.467,491.373,363.373,502.467,348.867,502.467z M161.133,468.333
		c-5.12,0-8.533,3.413-8.533,8.533c0,5.12,3.413,8.533,8.533,8.533h187.733c5.12,0,8.533-3.413,8.533-8.533
		c0-5.12-3.413-8.533-8.533-8.533H161.133z"/>
	<path d="M203.8,246.467c-2.56,0-4.267-0.853-5.973-2.56l-67.413-67.413c-0.853-0.853-1.707-1.707-2.56-3.413
		c-1.707-3.413-0.853-6.827,1.707-9.387l68.267-68.267c3.413-3.413,8.533-3.413,11.947,0s3.413,8.533,0,11.947l-62.293,62.293
		l62.293,62.293c3.413,3.413,3.413,8.533,0,11.947C208.067,245.613,206.36,246.467,203.8,246.467z"/>
	<path d="M306.2,246.467c-2.56,0-4.267-0.853-5.973-2.56c-3.413-3.413-3.413-8.533,0-11.947l62.293-62.293l-62.293-62.293
		c-3.413-3.413-3.413-8.533,0-11.947c3.413-3.413,8.533-3.413,11.947,0l67.413,67.413c0.853,0.853,1.707,1.707,2.56,3.413
		c1.707,3.413,0.853,6.827-1.707,9.387l-68.267,68.267C310.467,245.613,308.76,246.467,306.2,246.467z"/>
	<path d="M237.933,246.467c-0.853,0-1.707,0-1.707,0c-4.267-0.853-7.68-5.973-5.973-10.24l34.133-136.533
		c0.853-4.267,5.973-7.68,10.24-5.973c4.267,0.853,7.68,5.973,5.973,10.24l-34.133,136.533
		C245.613,243.907,242.2,246.467,237.933,246.467z"/>
</g>
</svg>